<!--
<svg xmlns="http://www.w3.org/2000/svg" xmlns:xlink="http://www.w3.org/1999/xlink" width="30px" height="30px" viewBox="0 0 30 30" zoomAndPan="disable" preserveAspectRatio="none">
    <style type="text/css"><![CDATA[ line { stroke: #ffffff; stroke-width: 3; } ]]></style>
	<line x1="0" y1="15" x2="15" y2="30" />
	<line x1="30" y1="15" x2="15" y2="30" />
	<line x1="15" y1="30" x2="15" y2="0" />
</svg>
-->

<?xml version="1.0" encoding="utf-8"?>
<svg xmlns="http://www.w3.org/2000/svg" xmlns:xlink="http://www.w3.org/1999/xlink" version="1.1" style="width:30;height:30;position:absolute;overflow:hidden;">
  <defs>
<symbol viewBox="0 0 1024 902.3333740234375" aria-labelledby="dbsi-ant-fast-forward-title" id="si-ant-fast-forward"><title id="dbsi-ant-fast-forward-title">icon fast-forward</title><path d="M51 12.167l420 416q7 8 9 18v-411q0-21 18-29.5t33 6.5l420 416q9 9 9 22.5t-9 23.5l-420 416q-15 15-33 6.5t-18-29.5v-411q-2 10-9 18l-420 416q-14 15-32.5 6.5T0 867.167v-832q0-21 18.5-29.5t32.5 6.5zm941-9q13 0 22.5 9.5t9.5 22.5v832q0 13-9.5 22.5t-22.5 9.5-22.5-9.5-9.5-22.5v-832q0-13 9.5-22.5t22.5-9.5z"/></symbol>
  </defs>
</svg>
